<svg version="1.1" id="Layer_1" xmlns="http://www.w3.org/2000/svg" xmlns:xlink="http://www.w3.org/1999/xlink" x="0px" y="0px"
	 width="100%" viewBox="0 0 512 512" enable-background="new 0 0 512 512" xml:space="preserve">
<path fill="#000000" opacity="1.000000" stroke="none" 
	d="
M513.000000,202.000000 
	C513.000000,305.619415 513.000000,409.238861 513.000000,512.929138 
	C342.333344,512.929138 171.666672,512.929138 1.000000,512.929138 
	C1.000000,468.895386 1.000000,424.915558 1.243486,380.126404 
	C5.557311,384.470520 11.100211,384.465332 17.323505,383.817383 
	C24.728575,383.419861 32.563538,386.696625 37.908615,379.641571 
	C37.976566,383.581238 37.990368,387.068420 37.994827,390.555634 
	C38.007481,400.444916 44.676014,405.117828 54.236553,402.152588 
	C59.892639,402.864532 65.443634,404.447052 70.887283,401.047241 
	C71.508949,400.695862 71.784103,400.353638 72.023682,400.087646 
	C71.988106,400.163940 72.140503,400.235443 72.470428,400.169250 
	C73.283913,399.452057 73.767479,398.801056 74.209351,398.074890 
	C74.167664,397.999786 74.017303,398.082916 74.291344,398.023193 
	C74.733925,397.647614 74.902466,397.331696 75.053223,397.079803 
	C75.035446,397.143799 75.163361,397.179596 75.433243,396.956146 
	C75.785942,395.827606 75.868767,394.922546 75.988861,393.548950 
	C76.062042,379.746613 76.097954,366.412781 76.593475,353.052765 
	C106.369286,353.068695 135.685486,353.110748 165.129456,353.455017 
	C172.101181,360.601257 178.704224,367.709076 185.843399,374.229889 
	C197.705688,385.064789 209.912247,395.522705 222.109100,406.447510 
	C223.665268,407.845978 225.078033,408.947052 226.508270,410.024994 
	C245.418869,424.277802 264.267212,438.614563 283.280151,452.729584 
	C289.772369,457.549286 298.782196,457.154144 305.230347,452.243927 
	C325.109344,437.106384 345.293030,422.340851 364.686768,406.603180 
	C380.018677,394.161591 394.700226,380.857574 409.026428,367.257935 
	C419.444794,357.367981 428.986572,346.527374 438.592499,335.817535 
	C446.260925,327.267853 453.895660,318.617218 460.736450,309.410400 
	C475.437958,289.623901 488.822021,268.970428 498.430298,246.123367 
	C504.114868,232.606247 508.892181,218.802933 511.087463,204.215195 
	C511.210236,203.399338 512.339294,202.734909 513.000000,202.000000 
z"/>
<path fill="#000000" opacity="1.000000" stroke="none" 
	d="
M0.999998,279.000000 
	C1.000000,186.376099 1.000000,93.752190 1.000000,1.064143 
	C171.545120,1.064143 342.090271,1.064143 513.000000,1.064143 
	C513.000000,52.354191 513.000000,103.709244 512.670593,155.842102 
	C511.900177,155.789108 511.229004,155.004410 511.051941,154.120728 
	C507.033020,134.060837 498.358063,116.145782 485.068726,100.738495 
	C471.607758,85.132187 455.288483,73.132942 435.738007,66.060852 
	C425.170105,62.238079 414.364166,59.193275 402.501160,59.101452 
	C387.348145,58.529690 372.843079,59.226311 358.616821,63.670753 
	C335.450989,70.908020 316.171570,83.673378 300.898895,102.557388 
	C296.760162,107.674774 290.906433,106.991951 286.423035,102.091370 
	C276.057312,90.761108 264.899994,80.337982 251.154816,72.988045 
	C227.483765,60.330460 202.371567,56.486824 175.944077,59.988392 
	C159.065247,62.224785 143.578659,68.155029 129.214020,77.244186 
	C113.098373,87.441299 100.148857,100.800880 90.550957,117.139816 
	C80.678520,133.946136 74.709190,152.179352 74.042221,171.835953 
	C73.628181,184.038483 74.413132,196.131241 76.891457,208.193283 
	C81.430908,230.286835 89.818695,250.848572 100.954491,270.269257 
	C107.744461,282.110870 115.615364,293.332611 122.535889,304.899963 
	C106.717506,304.944641 91.363976,304.922119 76.021896,304.437378 
	C76.004814,290.978424 75.976280,277.981750 76.006348,264.636292 
	C75.777611,263.456238 75.490273,262.624969 75.122101,261.803101 
	C75.041275,261.812561 75.059662,261.974274 75.000748,261.700562 
	C74.645592,261.212738 74.349350,260.998566 73.886749,260.529663 
	C72.809196,259.515747 71.897995,258.756531 70.967117,257.716736 
	C70.629189,257.281616 70.310944,257.127075 69.526245,256.958618 
	C64.316650,257.083313 59.573502,257.221954 54.424103,257.320587 
	C42.578438,254.633667 38.006020,258.382324 37.988983,270.388977 
	C37.984528,273.531647 37.900467,276.674194 37.543606,279.697205 
	C31.382269,273.653015 24.046261,274.819672 16.407310,275.261902 
	C10.795941,274.755859 5.578978,274.117004 2.016717,279.256897 
	C1.946832,279.357727 1.350642,279.093781 0.999998,279.000000 
z"/>
<path fill="#F63511" opacity="1.000000" stroke="none" 
	d="
M402.962006,59.169117 
	C414.364166,59.193275 425.170105,62.238079 435.738007,66.060852 
	C455.288483,73.132942 471.607758,85.132187 485.068726,100.738495 
	C498.358063,116.145782 507.033020,134.060837 511.051941,154.120728 
	C511.229004,155.004410 511.900177,155.789108 512.670593,156.309967 
	C513.000000,171.020889 513.000000,186.041794 513.000000,201.531342 
	C512.339294,202.734909 511.210236,203.399338 511.087463,204.215195 
	C508.892181,218.802933 504.114868,232.606247 498.430298,246.123367 
	C488.822021,268.970428 475.437958,289.623901 460.736450,309.410400 
	C453.895660,318.617218 446.260925,327.267853 438.592499,335.817535 
	C428.986572,346.527374 419.444794,357.367981 409.026428,367.257935 
	C394.700226,380.857574 380.018677,394.161591 364.686768,406.603180 
	C345.293030,422.340851 325.109344,437.106384 305.230347,452.243927 
	C298.782196,457.154144 289.772369,457.549286 283.280151,452.729584 
	C264.267212,438.614563 245.418869,424.277802 226.508270,410.024994 
	C225.078033,408.947052 223.665268,407.845978 222.338867,406.197113 
	C225.758530,403.157166 229.063751,400.648407 232.412659,398.199402 
	C242.583694,390.761505 252.771606,383.346710 263.020874,376.395905 
	C263.108978,380.660278 263.137787,384.451630 263.147736,388.243011 
	C263.176941,399.366852 266.522614,402.528412 278.321472,402.204254 
	C282.623444,402.291016 286.461731,402.486206 290.273285,402.249878 
	C296.828796,401.843414 300.582275,397.953949 300.865265,391.353760 
	C301.057648,386.867493 300.954590,382.368500 301.288818,378.042725 
	C304.485565,383.017639 308.914154,384.330597 314.624023,383.821472 
	C318.231689,383.922668 321.393127,383.973236 324.554504,383.967926 
	C334.635406,383.950989 338.016449,380.578644 338.046875,370.527710 
	C338.110809,349.395630 338.169434,328.263519 338.484253,306.925110 
	C353.091553,289.691956 368.287506,273.295105 381.599426,255.489685 
	C401.260010,229.192551 416.696716,200.477371 424.188354,168.105591 
	C432.172852,133.604065 429.085938,100.650253 409.942932,70.064720 
	C407.654602,66.408653 405.290802,62.799835 402.962006,59.169117 
z"/>
<path fill="#848489" opacity="1.000000" stroke="none" 
	d="
M0.999998,279.468658 
	C1.350642,279.093781 1.946832,279.357727 2.016717,279.256897 
	C5.578978,274.117004 10.795941,274.755859 16.517078,275.575226 
	C21.216047,279.424988 22.325176,283.887268 22.285002,289.220062 
	C22.094921,314.452057 22.083553,339.687225 22.278067,364.919159 
	C22.331497,371.849884 22.308315,378.486755 16.858643,383.705109 
	C11.100211,384.465332 5.557311,384.470520 1.243486,379.658569 
	C1.000000,346.645782 1.000000,313.291534 0.999998,279.468658 
z"/>
<path fill="#555454" opacity="1.000000" stroke="none" 
	d="
M165.001694,353.152832 
	C135.685486,353.110748 106.369286,353.068695 76.387497,352.686707 
	C75.797775,345.902954 75.873642,339.459076 76.422607,333.025269 
	C98.176613,333.038361 119.457527,333.044067 140.738434,333.043884 
	C166.175766,333.043640 191.613312,333.096313 217.050354,333.007355 
	C227.500320,332.970795 233.804169,326.597260 234.015656,316.213013 
	C234.090134,312.556610 234.069183,308.898224 234.549805,305.169403 
	C244.304413,305.078552 253.601028,305.059052 262.945251,305.502747 
	C262.975708,321.645691 262.958588,337.325470 262.476440,353.003143 
	C229.674881,353.051636 197.338287,353.102234 165.001694,353.152832 
z"/>
<path fill="#FF592A" opacity="1.000000" stroke="none" 
	d="
M165.129456,353.455017 
	C197.338287,353.102234 229.674881,353.051636 262.544281,353.468079 
	C263.035706,361.264374 262.994324,368.593628 262.952942,375.922882 
	C252.771606,383.346710 242.583694,390.761505 232.412659,398.199402 
	C229.063751,400.648407 225.758530,403.157166 222.203583,405.888977 
	C209.912247,395.522705 197.705688,385.064789 185.843399,374.229889 
	C178.704224,367.709076 172.101181,360.601257 165.129456,353.455017 
z"/>
<path fill="#838388" opacity="1.000000" stroke="none" 
	d="
M37.852966,279.816803 
	C37.900467,276.674194 37.984528,273.531647 37.988983,270.388977 
	C38.006020,258.382324 42.578438,254.633667 54.547791,257.628540 
	C58.985424,261.653137 60.079323,266.159790 60.057724,271.481964 
	C59.902489,309.738007 59.887890,347.995422 60.062599,386.251312 
	C60.090878,392.442596 59.039352,397.768860 54.018078,401.780731 
	C44.676014,405.117828 38.007481,400.444916 37.994827,390.555634 
	C37.990368,387.068420 37.976566,383.581238 37.876026,379.182312 
	C38.109211,374.470062 38.737213,370.667297 38.709274,366.869385 
	C38.495815,337.851318 38.154507,308.834198 37.852966,279.816803 
z"/>
<path fill="#545353" opacity="1.000000" stroke="none" 
	d="
M54.236553,402.152588 
	C59.039352,397.768860 60.090878,392.442596 60.062599,386.251312 
	C59.887890,347.995422 59.902489,309.738007 60.057724,271.481964 
	C60.079323,266.159790 58.985424,261.653137 54.954033,257.668518 
	C59.573502,257.221954 64.316650,257.083313 69.681534,257.139313 
	C70.517708,257.568878 70.745552,257.790009 70.986794,257.997345 
	C71.897995,258.756531 72.809196,259.515747 74.043373,260.737244 
	C74.597458,261.457794 74.828560,261.716034 75.059662,261.974274 
	C75.059662,261.974274 75.041275,261.812561 75.111359,262.141174 
	C75.436874,263.308228 75.692307,264.146637 75.947739,264.985077 
	C75.976280,277.981750 76.004814,290.978424 75.999130,304.912109 
	C75.959770,314.904480 75.954636,323.959839 75.949509,333.015228 
	C75.873642,339.459076 75.797775,345.902954 75.927887,352.712860 
	C76.097954,366.412781 76.062042,379.746613 75.826363,393.836365 
	C75.472183,395.454681 75.317772,396.317139 75.163361,397.179596 
	C75.163361,397.179596 75.035446,397.143799 74.875122,397.255066 
	C74.482300,397.605194 74.249802,397.844055 74.017303,398.082916 
	C74.017303,398.082916 74.167664,397.999786 73.907997,398.173706 
	C73.145721,398.976898 72.643105,399.606171 72.140503,400.235443 
	C72.140503,400.235443 71.988106,400.163940 71.789841,400.289612 
	C71.241295,400.628967 70.891022,400.842651 70.540756,401.056366 
	C65.443634,404.447052 59.892639,402.864532 54.236553,402.152588 
z"/>
<path fill="#565555" opacity="1.000000" stroke="none" 
	d="
M37.543602,279.697205 
	C38.154507,308.834198 38.495815,337.851318 38.709274,366.869385 
	C38.737213,370.667297 38.109211,374.470062 37.817612,378.729858 
	C32.563538,386.696625 24.728575,383.419861 17.323505,383.817383 
	C22.308315,378.486755 22.331497,371.849884 22.278067,364.919159 
	C22.083553,339.687225 22.094921,314.452057 22.285002,289.220062 
	C22.325176,283.887268 21.216047,279.424988 16.961147,275.625305 
	C24.046261,274.819672 31.382269,273.653015 37.543602,279.697205 
z"/>
<path fill="#555454" opacity="1.000000" stroke="none" 
	d="
M72.470428,400.169250 
	C72.643105,399.606171 73.145721,398.976898 73.949692,398.248840 
	C73.767479,398.801056 73.283913,399.452057 72.470428,400.169250 
z"/>
<path fill="#555454" opacity="1.000000" stroke="none" 
	d="
M75.433243,396.956146 
	C75.317772,396.317139 75.472183,395.454681 75.789093,394.304840 
	C75.868767,394.922546 75.785942,395.827606 75.433243,396.956146 
z"/>
<path fill="#555454" opacity="1.000000" stroke="none" 
	d="
M70.887283,401.047241 
	C70.891022,400.842651 71.241295,400.628967 71.825409,400.213318 
	C71.784103,400.353638 71.508949,400.695862 70.887283,401.047241 
z"/>
<path fill="#555454" opacity="1.000000" stroke="none" 
	d="
M74.291344,398.023193 
	C74.249802,397.844055 74.482300,397.605194 74.892899,397.191071 
	C74.902466,397.331696 74.733925,397.647614 74.291344,398.023193 
z"/>
<path fill="#FF592A" opacity="1.000000" stroke="none" 
	d="
M262.897644,305.039551 
	C253.601028,305.059052 244.304413,305.078552 234.075378,305.123352 
	C210.048599,305.132599 186.954163,305.144226 163.859894,305.090118 
	C150.240051,305.058197 136.620453,304.922089 123.000748,304.832825 
	C115.615364,293.332611 107.744461,282.110870 100.954491,270.269257 
	C89.818695,250.848572 81.430908,230.286835 76.891457,208.193283 
	C74.413132,196.131241 73.628181,184.038483 74.042221,171.835953 
	C74.709190,152.179352 80.678520,133.946136 90.550957,117.139816 
	C100.148857,100.800880 113.098373,87.441299 129.214020,77.244186 
	C143.578659,68.155029 159.065247,62.224785 175.944077,59.988392 
	C202.371567,56.486824 227.483765,60.330460 251.154816,72.988045 
	C264.899994,80.337982 276.057312,90.761108 286.423035,102.091370 
	C290.906433,106.991951 296.760162,107.674774 300.898895,102.557388 
	C316.171570,83.673378 335.450989,70.908020 358.616821,63.670753 
	C372.843079,59.226311 387.348145,58.529690 402.501160,59.101456 
	C405.290802,62.799835 407.654602,66.408653 409.942932,70.064720 
	C429.085938,100.650253 432.172852,133.604065 424.188354,168.105591 
	C416.696716,200.477371 401.260010,229.192551 381.599426,255.489685 
	C368.287506,273.295105 353.091553,289.691956 338.420105,306.445557 
	C338.077240,299.345184 338.142426,292.516174 338.001862,285.691437 
	C337.867554,279.171448 333.868225,275.203674 327.327118,275.056000 
	C323.170074,274.962128 319.006989,275.136627 314.431641,275.146179 
	C308.441498,274.374969 304.206726,276.588806 300.972809,280.569580 
	C300.933472,276.140381 300.985107,272.178894 300.876495,268.221802 
	C300.684418,261.222626 297.549774,257.766754 290.246765,256.598877 
	C286.822479,256.566956 283.728149,256.630981 280.199768,256.641418 
	C279.185394,256.634979 278.605042,256.682159 277.636902,256.655579 
	C265.584076,257.159515 263.185425,259.696167 263.137299,271.329254 
	C263.090790,282.566162 262.980133,293.802795 262.897644,305.039551 
M214.229706,261.424469 
	C220.829132,264.375397 224.566605,262.572418 226.831329,255.161560 
	C234.564651,229.855698 242.243927,204.533356 249.962189,179.222870 
	C250.439178,177.658646 251.074448,176.142670 251.636078,174.604248 
	C253.994583,179.139694 255.332855,183.411316 256.665894,187.684555 
	C258.820587,194.591827 260.582581,195.959457 267.709320,195.966156 
	C290.363037,195.987473 313.016724,195.982697 335.670410,195.954117 
	C337.321472,195.952042 339.058807,195.956360 340.605652,195.474762 
	C344.164185,194.366821 346.121002,191.816513 346.036163,188.009399 
	C345.951294,184.199905 343.910461,181.723434 340.255920,180.863007 
	C338.341248,180.412186 336.293457,180.409088 334.305450,180.405884 
	C314.650085,180.374237 294.994019,180.304596 275.339752,180.456284 
	C271.714844,180.484268 270.035583,179.293762 269.065613,175.772415 
	C266.503021,166.469406 263.541107,157.276749 260.767853,148.031250 
	C259.355774,143.323563 258.122559,138.197861 251.863525,138.273270 
	C245.920578,138.344849 244.672195,143.248581 243.291336,147.808365 
	C235.863190,172.336975 228.404785,196.856430 220.946594,221.375931 
	C220.382660,223.229889 219.738815,225.059540 218.783249,227.958923 
	C217.900833,225.484192 217.366470,224.156158 216.950211,222.792068 
	C212.578613,208.466553 208.210922,194.139786 203.872131,179.804276 
	C199.390671,164.997360 199.405182,164.992966 184.156906,164.992966 
	C182.158051,164.992966 180.159195,164.992859 178.160339,164.992981 
	C158.504913,164.994156 138.849411,164.964783 119.194115,165.015549 
	C113.441223,165.030411 110.055687,167.948105 110.009613,172.627792 
	C109.963577,177.303299 113.265587,180.186752 119.043365,180.450409 
	C120.872292,180.533844 122.707237,180.495163 124.539429,180.495468 
	C143.861710,180.498672 163.185013,180.602585 182.505432,180.413834 
	C186.505692,180.374756 188.345001,181.564270 189.512863,185.525253 
	C196.195908,208.192062 203.138504,230.782883 210.108002,253.364014 
	C210.922409,256.002716 212.443314,258.423370 214.229706,261.424469 
z"/>
<path fill="#858489" opacity="1.000000" stroke="none" 
	d="
M122.535889,304.899994 
	C136.620453,304.922089 150.240051,305.058197 163.859894,305.090118 
	C186.954163,305.144226 210.048599,305.132599 233.617371,305.194702 
	C234.069183,308.898224 234.090134,312.556610 234.015656,316.213013 
	C233.804169,326.597260 227.500320,332.970795 217.050354,333.007355 
	C191.613312,333.096313 166.175766,333.043640 140.738434,333.043884 
	C119.457527,333.044067 98.176613,333.038361 76.422607,333.025269 
	C75.954636,323.959839 75.959770,314.904480 75.987671,305.374359 
	C91.363976,304.922119 106.717506,304.944641 122.535889,304.899994 
z"/>
<path fill="#555454" opacity="1.000000" stroke="none" 
	d="
M76.006348,264.636292 
	C75.692307,264.146637 75.436874,263.308228 75.192184,262.131714 
	C75.490273,262.624969 75.777611,263.456238 76.006348,264.636292 
z"/>
<path fill="#555454" opacity="1.000000" stroke="none" 
	d="
M75.000748,261.700562 
	C74.828560,261.716034 74.597458,261.457794 74.209732,260.991974 
	C74.349350,260.998566 74.645592,261.212738 75.000748,261.700562 
z"/>
<path fill="#555454" opacity="1.000000" stroke="none" 
	d="
M70.967117,257.716736 
	C70.745552,257.790009 70.517708,257.568878 70.147980,257.153229 
	C70.310944,257.127075 70.629189,257.281616 70.967117,257.716736 
z"/>
<path fill="#848387" opacity="1.000000" stroke="none" 
	d="
M262.945251,305.502747 
	C262.980133,293.802795 263.090790,282.566162 263.137299,271.329254 
	C263.185425,259.696167 265.584076,257.159515 277.817291,256.886993 
	C283.489471,260.562256 284.984619,265.386505 284.963074,271.349670 
	C284.823547,309.969391 284.805725,348.590210 284.977661,387.209656 
	C285.006073,393.592377 283.280182,398.607452 277.845734,402.118530 
	C266.522614,402.528412 263.176941,399.366852 263.147736,388.243011 
	C263.137787,384.451630 263.108978,380.660278 263.020874,376.395905 
	C262.994324,368.593628 263.035706,361.264374 263.009277,353.470184 
	C262.958588,337.325470 262.975708,321.645691 262.945251,305.502747 
z"/>
<path fill="#565454" opacity="1.000000" stroke="none" 
	d="
M278.321472,402.204254 
	C283.280182,398.607452 285.006073,393.592377 284.977661,387.209656 
	C284.805725,348.590210 284.823547,309.969391 284.963074,271.349670 
	C284.984619,265.386505 283.489471,260.562256 278.205078,256.960693 
	C278.605042,256.682159 279.185394,256.634979 280.527100,256.666077 
	C284.384521,256.727875 287.480591,256.711365 290.576660,256.694855 
	C297.549774,257.766754 300.684418,261.222626 300.876495,268.221802 
	C300.985107,272.178894 300.933472,276.140381 300.939758,281.034302 
	C300.944885,313.937561 300.964264,345.906403 300.983643,377.875214 
	C300.954590,382.368500 301.057648,386.867493 300.865265,391.353760 
	C300.582275,397.953949 296.828796,401.843414 290.273285,402.249878 
	C286.461731,402.486206 282.623444,402.291016 278.321472,402.204254 
z"/>
<path fill="#848489" opacity="1.000000" stroke="none" 
	d="
M301.288818,378.042725 
	C300.964264,345.906403 300.944885,313.937561 300.958557,281.504028 
	C304.206726,276.588806 308.441498,274.374969 314.701447,275.356689 
	C320.460876,278.419434 322.143890,282.767761 322.111328,288.470245 
	C321.955811,315.712402 321.917236,342.956970 322.134033,370.198273 
	C322.185211,376.630249 320.026581,381.103516 314.177734,383.745239 
	C308.914154,384.330597 304.485565,383.017639 301.288818,378.042725 
z"/>
<path fill="#555454" opacity="1.000000" stroke="none" 
	d="
M314.624023,383.821472 
	C320.026581,381.103516 322.185211,376.630249 322.134033,370.198273 
	C321.917236,342.956970 321.955811,315.712402 322.111328,288.470245 
	C322.143890,282.767761 320.460876,278.419434 315.116394,275.401306 
	C319.006989,275.136627 323.170074,274.962128 327.327118,275.056000 
	C333.868225,275.203674 337.867554,279.171448 338.001862,285.691437 
	C338.142426,292.516174 338.077240,299.345184 338.166107,306.651855 
	C338.169434,328.263519 338.110809,349.395630 338.046875,370.527710 
	C338.016449,380.578644 334.635406,383.950989 324.554504,383.967926 
	C321.393127,383.973236 318.231689,383.922668 314.624023,383.821472 
z"/>
<path fill="#FFC3B0" opacity="1.000000" stroke="none" 
	d="
M213.933197,261.184784 
	C212.443314,258.423370 210.922409,256.002716 210.108002,253.364014 
	C203.138504,230.782883 196.195908,208.192062 189.512863,185.525253 
	C188.345001,181.564270 186.505692,180.374756 182.505432,180.413834 
	C163.185013,180.602585 143.861710,180.498672 124.539429,180.495468 
	C122.707237,180.495163 120.872292,180.533844 119.043365,180.450409 
	C113.265587,180.186752 109.963577,177.303299 110.009613,172.627792 
	C110.055687,167.948105 113.441223,165.030411 119.194115,165.015549 
	C138.849411,164.964783 158.504913,164.994156 178.160339,164.992981 
	C180.159195,164.992859 182.158051,164.992966 184.156906,164.992966 
	C199.405182,164.992966 199.390671,164.997360 203.872131,179.804276 
	C208.210922,194.139786 212.578613,208.466553 216.950211,222.792068 
	C217.366470,224.156158 217.900833,225.484192 218.783249,227.958923 
	C219.738815,225.059540 220.382660,223.229889 220.946594,221.375931 
	C228.404785,196.856430 235.863190,172.336975 243.291336,147.808365 
	C244.672195,143.248581 245.920578,138.344849 251.863525,138.273270 
	C258.122559,138.197861 259.355774,143.323563 260.767853,148.031250 
	C263.541107,157.276749 266.503021,166.469406 269.065613,175.772415 
	C270.035583,179.293762 271.714844,180.484268 275.339752,180.456284 
	C294.994019,180.304596 314.650085,180.374237 334.305450,180.405884 
	C336.293457,180.409088 338.341248,180.412186 340.255920,180.863007 
	C343.910461,181.723434 345.951294,184.199905 346.036163,188.009399 
	C346.121002,191.816513 344.164185,194.366821 340.605652,195.474762 
	C339.058807,195.956360 337.321472,195.952042 335.670410,195.954117 
	C313.016724,195.982697 290.363037,195.987473 267.709320,195.966156 
	C260.582581,195.959457 258.820587,194.591827 256.665894,187.684555 
	C255.332855,183.411316 253.994583,179.139694 251.636078,174.604248 
	C251.074448,176.142670 250.439178,177.658646 249.962189,179.222870 
	C242.243927,204.533356 234.564651,229.855698 226.831329,255.161560 
	C224.566605,262.572418 220.829132,264.375397 213.933197,261.184784 
z"/>
<path fill="#848387" opacity="1.000000" stroke="none" 
	d="
M290.246765,256.598877 
	C287.480591,256.711365 284.384521,256.727875 280.961121,256.719696 
	C283.728149,256.630981 286.822479,256.566956 290.246765,256.598877 
z"/>
</svg>